<?xml version="1.0" encoding="UTF-8"?>
<svg enable-background="new 0 0 211 200" version="1.1" viewBox="0 0 211 200" xml:space="preserve" xmlns="http://www.w3.org/2000/svg" xmlns:cc="http://creativecommons.org/ns#" xmlns:dc="http://purl.org/dc/elements/1.1/" xmlns:rdf="http://www.w3.org/1999/02/22-rdf-syntax-ns#"><metadata><rdf:RDF><cc:Work rdf:about=""><dc:format>image/svg+xml</dc:format><dc:type rdf:resource="http://purl.org/dc/dcmitype/StillImage"/></cc:Work></rdf:RDF></metadata>
<style type="text/css">
	.st0{fill:none;}
</style>
<rect class="st0" x="-12.4" y="110.06" width="235.8" height="59.42"/><g fill="#00c4c4">
		<g fill="#00c4c4">
			
				<path d="m44.22 22.18 5.67-13.15c0.29-0.66 1.65-0.71 3.04-0.11l60.73 31.86c2.87 1.24 3.06 2.63 2.47 3.99l-0.41 0.96c-0.59 1.36-1.73 2.18-4.6 0.94l-64.89-22.2c-1.4-0.61-2.3-1.63-2.01-2.29z" fill="#00c4c4"/>
			
			<path d="m101.21 33.83c0.35 0.15 0.67 0.34 0.96 0.56l0.15-0.11c0.13-0.1 0.23-0.19 0.34-0.29 0.08-0.07 0.17-0.15 0.26-0.23s0.18-0.18 0.27-0.26c0.16-0.15 0.34-0.32 0.5-0.51l0.49-0.53 0.46-0.58c0.22-0.25 0.39-0.5 0.59-0.8 0.11-0.15 0.22-0.31 0.33-0.47 0.08-0.14 0.17-0.28 0.26-0.42 0.21-0.35 0.41-0.68 0.57-1.01l0.11-0.24c0.21-0.44 0.44-0.89 0.6-1.36 0.05-0.16 0.1-0.28 0.15-0.4 0.06-0.17 0.13-0.34 0.18-0.51l0.23-0.89c0.01-0.02 0.01-0.05 0.02-0.07 0.11-0.36 0.17-0.77 0.22-1.2 0.02-0.17 0.05-0.34 0.07-0.51 0.07-0.37 0.07-0.73 0.08-1.11 0.01-0.19 0.01-0.38 0.01-0.57 0-0.12 0-0.23 0.01-0.34 0-0.12 0.01-0.24 0-0.36l-0.09-0.84c-0.03-0.17-0.04-0.37-0.06-0.56-0.02-0.28-0.05-0.54-0.1-0.71l-0.5-2.15c-0.07-0.31-0.04-0.63 0.08-0.91 0.13-0.31 0.38-0.58 0.7-0.73 0.62-0.29 1.35-0.12 1.77 0.42l1.37 1.78c0.24 0.31 0.45 0.66 0.64 0.99 0.09 0.15 0.18 0.3 0.28 0.47l0.48 0.83c0.15 0.26 0.26 0.51 0.36 0.74l0.12 0.27c0.1 0.23 0.17 0.39 0.25 0.56 0.22 0.5 0.48 1.08 0.63 1.72l0.12 0.4c0.18 0.61 0.39 1.3 0.5 2.05l0.21 1.17c0.05 0.37 0.07 0.68 0.1 1l0.03 0.38c0.09 0.88 0.07 1.74 0.05 2.58v0.11c-0.01 0.71-0.09 1.4-0.16 2.05l-0.06 0.54c-0.01 0.04-0.01 0.07-0.02 0.11-0.04 0.22-0.08 0.43-0.11 0.65-0.1 0.58-0.2 1.19-0.36 1.77l-0.24 0.97c0 0.03-0.03 0.12-0.04 0.15l-0.3 0.98c-0.08 0.26-0.16 0.51-0.25 0.75 0.31 1.43 0.19 2.96-0.43 4.4l-0.96 2.22c-0.44 1.02-1.2 2.12-2.13 3.14 1.47 2.31-0.88 7.15-3.93 14.2l-15.76-6.83c2.35-5.41 4.99-12.07 7.67-12.58 0.02-0.31 0.06-0.61 0.1-0.91-0.21-0.06-0.42-0.12-0.63-0.21"/>
		
		
			<polygon points="71.95 80.36 54.99 86.04 59.53 88.46 35.65 99.51 64.92 87.31 60.89 85.74 78.53 79.83 73.38 77.87 100.26 67.12 66.58 77.86"/>
			<polygon points="144.24 81.96 127.83 77.44 131.84 74.96 108.42 65.74 136.99 75.79 133.38 77.44 150.45 82.15 145.83 84.22 172.01 93.02 139.47 84.54"/>
			<polygon points="115.05 81.24 109.35 76.35 112.06 75.94 104.95 67.72 114.07 77.21 111.84 77.32 117.76 82.41 114.93 82.53 123.43 91.04 111.96 81.57"/>
			<polygon points="94.83 87.34 87.01 104.18 96.6 85.36 94.83 86.23 102.65 70.74 91.49 89.59"/>
			<polygon points="134.1 67.99 119.78 66.4 136.42 67.55 136.78 67.89 153.78 69.04 134.34 68.53"/>
			<polygon points="80.84 67.03 94.25 66.11 77.86 68.72 66.32 69.33"/>
		</g>
	</g><g><path d="m34.95 121.78v41.75h-13.14v-41.75h-13.14v-11.71h39.42v11.71z" fill="#00b800"/><path d="m69.64 163.53v-3.3c-2.48 2.48-4.73 3.68-9.01 3.68-4.06 0-7.43-1.35-9.69-3.6-2.33-2.33-3.53-5.71-3.53-9.46 0-6.08 4.13-11.71 13.74-11.71h8.18v-1.05c0-3.68-1.8-5.03-6.08-5.03-3.15 0-4.51 0.75-6.46 2.7l-7.66-7.66c4.13-4.13 7.88-5.41 14.72-5.41 11.56 0 17.8 4.81 17.8 14.64v26.21h-12.01zm-0.3-16.22h-6.23c-2.4 0-3.9 1.35-3.9 3.23 0 1.8 1.35 3.38 4.05 3.38 2.4 0 3.53-0.23 4.88-1.5 0.9-0.83 1.2-2.1 1.2-4.05z" fill="#00c4c4"/><path d="m109.89 163.53v-3.3c-2.48 2.48-4.73 3.68-9.01 3.68-4.06 0-7.43-1.35-9.69-3.6-2.33-2.33-3.53-5.71-3.53-9.46 0-6.08 4.13-11.71 13.74-11.71h8.18v-1.05c0-3.68-1.8-5.03-6.08-5.03-3.15 0-4.51 0.75-6.46 2.7l-7.66-7.66c4.13-4.13 7.88-5.41 14.72-5.41 11.56 0 17.8 4.81 17.8 14.64v26.21h-12.01zm-0.3-16.22h-6.23c-2.4 0-3.9 1.35-3.9 3.23 0 1.8 1.35 3.38 4.05 3.38 2.4 0 3.53-0.23 4.88-1.5 0.9-0.83 1.2-2.1 1.2-4.05z" fill="#00b800"/><path d="m146.91 163.98c-6.98 0-18.17-3-18.17-20.65s11.19-20.65 18.17-20.65c5.63 0 9.99 1.88 13.29 5.18l-8.33 8.34c-1.58-1.58-2.93-2.4-4.96-2.4-1.65 0-2.78 0.53-3.83 1.58-1.43 1.5-2.03 4.13-2.03 7.96s0.6 6.46 2.03 7.96c1.05 1.05 2.18 1.58 3.83 1.58 2.03 0 3.38-0.83 4.96-2.4l8.33 8.34c-3.3 3.28-7.66 5.16-13.29 5.16z" fill="#00c4c4"/><path d="m189.37 163.53-8.41-14.79-2.4 2.63v12.17h-12.31v-53.46h12.31v27.18l10.89-14.12h14.79l-14.87 16.75 15.24 23.65h-15.24z" fill="#00b800"/></g><path transform="translate(-36 2)" d="m96.43 180.05h-6.0667v-1.6053l1.624-0.74667v-8.624l-1.624-0.74667v-1.6053h6.0667v1.6053l-1.624 0.74667v8.624l1.624 0.74667zm7.84-10.379q1.6427 0 2.632 0.896 0.98934 0.87734 0.98934 2.8373v6.6453h-2.7813v-5.9547q0-1.1013-0.392-1.6427-0.392-0.56-1.2507-0.56-1.2693 0-1.736 0.87733-0.46667 0.85867-0.46667 2.4827v4.7973h-2.7813v-10.192h2.128l0.37333 1.3067h0.14933q0.48534-0.78401 1.3253-1.1387 0.85867-0.35467 1.8107-0.35467zm10.771 8.344q0.46667 0 0.896-0.0933t0.85867-0.224v2.072q-0.448 0.18667-1.12 0.31734-0.65334 0.14933-1.4373 0.14933-0.91467 0-1.6427-0.29867-0.70933-0.29866-1.1387-1.0267-0.41067-0.74667-0.41067-2.0533v-4.9093h-1.3253v-1.176l1.5307-0.93333 0.80267-2.1467h1.7733v2.1653h2.856v2.0907h-2.856v4.9093q0 0.57867 0.336 0.87733 0.336 0.28 0.87734 0.28zm9.5014-8.344q0.20533 0 0.48533 0.0187t0.448 0.056l-0.20533 2.6133q-0.13067-0.0373-0.392-0.056-0.24267-0.0373-0.42934-0.0373-0.70933 0-1.3627 0.26133-0.65334 0.24267-1.064 0.80267-0.392 0.56-0.392 1.5307v5.1893h-2.7813v-10.192h2.1093l0.41067 1.7173h0.13067q0.448-0.784 1.232-1.344t1.8107-0.56zm6.5893-0.0187q2.0533 0 3.136 0.896 1.1013 0.87734 1.1013 2.7067v6.7947h-1.9413l-0.54134-1.3813h-0.0747q-0.65334 0.82133-1.3813 1.1947-0.728 0.37333-1.9973 0.37333-1.3627 0-2.2587-0.784-0.896-0.80267-0.896-2.4453 0-1.624 1.1387-2.3893 1.1387-0.78401 3.416-0.85867l1.7733-0.056v-0.448q0-0.80267-0.42933-1.176-0.41067-0.37333-1.1573-0.37333t-1.456 0.224q-0.70933 0.20533-1.4187 0.52267l-0.91467-1.8853q0.82134-0.42933 1.8107-0.672 1.008-0.24267 2.0907-0.24267zm0.392 5.712q-1.344 0.0373-1.8667 0.48534-0.52266 0.448-0.52266 1.176 0 0.63467 0.37333 0.91467 0.37333 0.26133 0.97067 0.26133 0.896 0 1.512-0.52267 0.616-0.54133 0.616-1.512v-0.84zm12.488-5.6933q1.6427 0 2.632 0.896 0.98934 0.87734 0.98934 2.8373v6.6453h-2.7813v-5.9547q0-1.1013-0.392-1.6427-0.392-0.56-1.2507-0.56-1.2693 0-1.736 0.87733-0.46667 0.85867-0.46667 2.4827v4.7973h-2.7813v-10.192h2.128l0.37334 1.3067h0.14933q0.48534-0.78401 1.3253-1.1387 0.85867-0.35467 1.8107-0.35467zm10.677 0q2.1093 0 3.3413 1.2133 1.232 1.1947 1.232 3.416v1.344h-6.5707q0.0373 1.176 0.69066 1.848 0.67201 0.672 1.848 0.672 0.98933 0 1.792-0.18667 0.80267-0.20533 1.6613-0.616v2.1467q-0.74667 0.37333-1.5867 0.54133-0.82134 0.18667-1.9973 0.18667-1.5307 0-2.7067-0.56-1.176-0.57867-1.848-1.736-0.67201-1.1573-0.67201-2.912 0-1.792 0.59734-2.968 0.616-1.1947 1.6987-1.792 1.0827-0.59733 2.52-0.59733zm0.0187 1.9787q-0.80267 0-1.344 0.52267-0.52267 0.52267-0.616 1.624h3.9013q-0.0187-0.93333-0.48534-1.5307-0.46667-0.616-1.456-0.616zm11.107 6.3653q0.46667 0 0.89601-0.0933 0.42933-0.0933 0.85866-0.224v2.072q-0.448 0.18667-1.12 0.31734-0.65333 0.14933-1.4373 0.14933-0.91467 0-1.6427-0.29867-0.70934-0.29866-1.1387-1.0267-0.41067-0.74667-0.41067-2.0533v-4.9093h-1.3253v-1.176l1.5307-0.93333 0.80267-2.1467h1.7733v2.1653h2.856v2.0907h-2.856v4.9093q0 0.57867 0.336 0.87733 0.336 0.28 0.87733 0.28zm3.416-4.536q0-0.85867 0.46667-1.1947 0.46667-0.35467 1.1387-0.35467 0.65333 0 1.12 0.35467 0.46667 0.336 0.46667 1.1947 0 0.82133-0.46667 1.1947-0.46667 0.35466-1.12 0.35466-0.672 0-1.1387-0.35466-0.46667-0.37334-0.46667-1.1947zm10.08-6.7574q2.6693 0 4.032 0.74667t1.3627 2.632q0 1.1387-0.54134 1.9227-0.52267 0.78401-1.512 0.95201v0.0933q0.672 0.13067 1.2133 0.46667 0.54134 0.336 0.85867 0.97066 0.31734 0.63467 0.31734 1.68 0 1.8107-1.3067 2.8373-1.3067 1.0267-3.584 1.0267h-4.984v-13.328zm0.31733 5.2827q1.232 0 1.6987-0.392 0.48534-0.392 0.48534-1.1387 0-0.76534-0.56-1.1013-0.56001-0.336-1.7733-0.336h-1.4933v2.968zm-1.6427 2.24v3.472h1.848q1.2693 0 1.7733-0.48534 0.504-0.504 0.504-1.3253 0-0.74667-0.52266-1.1947-0.504-0.46667-1.848-0.46667zm18.853-4.3867v10.192h-2.128l-0.37334-1.3067h-0.14933q-0.48533 0.784-1.344 1.1387-0.84 0.35467-1.792 0.35467-1.6427 0-2.632-0.87733-0.98933-0.896-0.98933-2.856v-6.6453h2.7813v5.9547q0 1.0827 0.392 1.6427 0.39201 0.56 1.2507 0.56 1.2693 0 1.736-0.85866 0.46666-0.87734 0.46666-2.5013v-4.7973zm4.312-3.9947q0.616 0 1.064 0.29867 0.448 0.28 0.448 1.064 0 0.76534-0.448 1.064-0.44801 0.29867-1.064 0.29867-0.63466 0-1.0827-0.29867-0.42933-0.29866-0.42933-1.064 0-0.784 0.42933-1.064 0.44801-0.29867 1.0827-0.29867zm1.3813 3.9947v10.192h-2.7813v-10.192zm5.6933 10.192h-2.7813v-14.187h2.7813zm6.1414 0.18667q-1.6987 0-2.7813-1.3253-1.064-1.344-1.064-3.9387 0-2.6133 1.0827-3.9573 1.0827-1.344 2.8373-1.344 1.1013 0 1.8107 0.42933 0.70934 0.42934 1.12 1.064h0.0933q-0.056-0.29867-0.13067-0.85867-0.0747-0.57867-0.0747-1.176v-3.2667h2.7813v14.187h-2.128l-0.54134-1.3253h-0.112q-0.41066 0.63467-1.1013 1.0827-0.69067 0.42933-1.792 0.42933zm0.97066-2.2213q1.1573 0 1.624-0.672 0.46666-0.69066 0.48533-2.0533v-0.29867q0-1.4933-0.46667-2.2773-0.448-0.784-1.68-0.784-0.91467 0-1.4373 0.80267-0.52266 0.784-0.52266 2.2773 0 1.4933 0.52266 2.2587 0.52267 0.74666 1.4747 0.74666zm11.816-8.344q2.1093 0 3.3413 1.2133 1.232 1.1947 1.232 3.416v1.344h-6.5707q0.0373 1.176 0.69067 1.848 0.672 0.672 1.848 0.672 0.98933 0 1.792-0.18667 0.80267-0.20533 1.6613-0.616v2.1467q-0.74667 0.37333-1.5867 0.54133-0.82134 0.18667-1.9973 0.18667-1.5307 0-2.7067-0.56-1.176-0.57867-1.848-1.736-0.672-1.1573-0.672-2.912 0-1.792 0.59734-2.968 0.616-1.1947 1.6987-1.792 1.0827-0.59733 2.52-0.59733zm0.0187 1.9787q-0.80267 0-1.344 0.52267-0.52267 0.52267-0.61601 1.624h3.9013q-0.0187-0.93333-0.48533-1.5307-0.46667-0.616-1.456-0.616zm12.507-1.9787q0.20533 0 0.48533 0.0187t0.44801 0.056l-0.20534 2.6133q-0.13067-0.0373-0.392-0.056-0.24267-0.0373-0.42933-0.0373-0.70934 0-1.3627 0.26133-0.65334 0.24267-1.064 0.80267-0.39201 0.56-0.39201 1.5307v5.1893h-2.7813v-10.192h2.1093l0.41067 1.7173h0.13067q0.448-0.784 1.232-1.344t1.8107-0.56z" fill="#00c4c4" style="inline-size:154.426;white-space:pre" aria-label="Intranet·Builder"/>






</svg>
