<?xml version="1.0" encoding="UTF-8" standalone="no"?>
<!-- Created with Inkscape (http://www.inkscape.org/) -->

<svg
   width="51.842819mm"
   height="19.094143mm"
   viewBox="0 0 51.842819 19.094143"
   version="1.1"
   id="svg1"
   xmlns="http://www.w3.org/2000/svg"
   xmlns:svg="http://www.w3.org/2000/svg">
  <defs
     id="defs1" />
  <g
     id="layer1"
     transform="translate(-37.041666,-34.13125)">
    <g
       id="g12"
       transform="matrix(0.26458333,0,0,0.26458333,34.747729,5.008563)">
      <path
         d="m 34.95,121.78 v 41.75 H 21.81 V 121.78 H 8.67 v -11.71 h 39.42 v 11.71 z"
         fill="#00b800"
         id="path8" />
      <path
         d="m 69.64,163.53 v -3.3 c -2.48,2.48 -4.73,3.68 -9.01,3.68 -4.06,0 -7.43,-1.35 -9.69,-3.6 -2.33,-2.33 -3.53,-5.71 -3.53,-9.46 0,-6.08 4.13,-11.71 13.74,-11.71 h 8.18 v -1.05 c 0,-3.68 -1.8,-5.03 -6.08,-5.03 -3.15,0 -4.51,0.75 -6.46,2.7 l -7.66,-7.66 c 4.13,-4.13 7.88,-5.41 14.72,-5.41 11.56,0 17.8,4.81 17.8,14.64 v 26.21 H 69.64 Z m -0.3,-16.22 h -6.23 c -2.4,0 -3.9,1.35 -3.9,3.23 0,1.8 1.35,3.38 4.05,3.38 2.4,0 3.53,-0.23 4.88,-1.5 0.9,-0.83 1.2,-2.1 1.2,-4.05 z"
         fill="#00c4c4"
         id="path9" />
      <path
         d="m 109.89,163.53 v -3.3 c -2.48,2.48 -4.73,3.68 -9.01,3.68 -4.06,0 -7.43,-1.35 -9.69,-3.6 -2.33,-2.33 -3.53,-5.71 -3.53,-9.46 0,-6.08 4.13,-11.71 13.74,-11.71 h 8.18 v -1.05 c 0,-3.68 -1.8,-5.03 -6.08,-5.03 -3.15,0 -4.51,0.75 -6.46,2.7 l -7.66,-7.66 c 4.13,-4.13 7.88,-5.41 14.72,-5.41 11.56,0 17.8,4.81 17.8,14.64 v 26.21 h -12.01 z m -0.3,-16.22 h -6.23 c -2.4,0 -3.9,1.35 -3.9,3.23 0,1.8 1.35,3.38 4.05,3.38 2.4,0 3.53,-0.23 4.88,-1.5 0.9,-0.83 1.2,-2.1 1.2,-4.05 z"
         fill="#00b800"
         id="path10" />
      <path
         d="m 146.91,163.98 c -6.98,0 -18.17,-3 -18.17,-20.65 0,-17.65 11.19,-20.65 18.17,-20.65 5.63,0 9.99,1.88 13.29,5.18 l -8.33,8.34 c -1.58,-1.58 -2.93,-2.4 -4.96,-2.4 -1.65,0 -2.78,0.53 -3.83,1.58 -1.43,1.5 -2.03,4.13 -2.03,7.96 0,3.83 0.6,6.46 2.03,7.96 1.05,1.05 2.18,1.58 3.83,1.58 2.03,0 3.38,-0.83 4.96,-2.4 l 8.33,8.34 c -3.3,3.28 -7.66,5.16 -13.29,5.16 z"
         fill="#00c4c4"
         id="path11" />
      <path
         d="m 189.37,163.53 -8.41,-14.79 -2.4,2.63 v 12.17 h -12.31 v -53.46 h 12.31 v 27.18 l 10.89,-14.12 h 14.79 l -14.87,16.75 15.24,23.65 h -15.24 z"
         fill="#00b800"
         id="path12" />
    </g>
    <path
       d="m 50.7365,53.175958 h -1.605148 v -0.424735 l 0.429683,-0.197557 V 50.2719 L 49.131352,50.074343 V 49.649608 H 50.7365 v 0.424735 L 50.306816,50.2719 v 2.281766 l 0.429684,0.197557 z m 2.074333,-2.74611 q 0.434631,0 0.696383,0.237067 0.261763,0.232129 0.261763,0.750702 v 1.758235 h -0.735886 v -1.575514 q 0,-0.291386 -0.103716,-0.434631 -0.103717,-0.148167 -0.330915,-0.148167 -0.335835,0 -0.459316,0.232127 -0.123473,0.22719 -0.123473,0.656881 v 1.269286 h -0.735886 v -2.696633 h 0.563033 l 0.09878,0.345731 h 0.03951 q 0.128413,-0.207436 0.350653,-0.301281 0.227189,-0.09384 0.479081,-0.09384 z m 2.849827,2.207683 q 0.123473,0 0.237067,-0.02469 0.113593,-0.02469 0.227189,-0.05927 v 0.548217 q -0.118533,0.04939 -0.296333,0.08396 -0.172863,0.03951 -0.380286,0.03951 -0.242006,0 -0.434631,-0.07902 -0.187677,-0.07902 -0.301281,-0.271648 -0.108656,-0.197557 -0.108656,-0.543269 V 51.03241 h -0.350652 v -0.31115 l 0.404997,-0.246944 0.212373,-0.567981 h 0.469186 v 0.572903 h 0.75565 v 0.553164 h -0.75565 v 1.298919 q 0,0.153106 0.0889,0.232127 0.0889,0.07408 0.23213,0.07408 z m 2.513912,-2.207683 q 0.05433,0 0.12841,0.0049 0.07408,0.0049 0.118533,0.01482 l -0.05433,0.691436 q -0.03457,-0.0099 -0.103717,-0.01482 -0.06421,-0.0099 -0.113596,-0.0099 -0.187677,0 -0.360548,0.06914 -0.172863,0.06421 -0.281517,0.212373 -0.103716,0.148167 -0.103716,0.404998 v 1.373002 h -0.735886 v -2.696633 h 0.558086 l 0.108656,0.454369 h 0.03457 q 0.118534,-0.207434 0.325967,-0.3556 0.207433,-0.148167 0.479081,-0.148167 z m 1.743419,-0.0049 q 0.543269,0 0.829733,0.237067 0.291386,0.232129 0.291386,0.716148 v 1.797764 H 60.525474 L 60.382245,52.81041 h -0.01976 q -0.172863,0.21731 -0.365469,0.316098 -0.192616,0.09878 -0.528452,0.09878 -0.360548,0 -0.597614,-0.207434 -0.237067,-0.212373 -0.237067,-0.646985 0,-0.429684 0.301281,-0.632169 0.301281,-0.207436 0.903817,-0.22719 l 0.469185,-0.01482 v -0.118533 q 0,-0.212373 -0.113593,-0.31115 -0.108657,-0.09878 -0.306203,-0.09878 -0.197545,0 -0.385233,0.05927 -0.187677,0.05433 -0.375364,0.138289 l -0.242007,-0.498819 q 0.217313,-0.113593 0.479081,-0.1778 0.2667,-0.06421 0.553165,-0.06421 z m 0.103717,1.5113 q -0.3556,0.0099 -0.493898,0.128413 -0.138287,0.118533 -0.138287,0.31115 0,0.167923 0.09878,0.242006 0.09878,0.06914 0.256823,0.06914 0.237066,0 0.40005,-0.13829 0.162983,-0.143227 0.162983,-0.40005 v -0.22225 z m 3.304116,-1.506352 q 0.434631,0 0.696383,0.237067 0.261763,0.232129 0.261763,0.750702 V 53.1759 h -0.735885 v -1.575514 q 0,-0.291386 -0.103717,-0.434631 -0.103717,-0.148167 -0.330914,-0.148167 -0.335836,0 -0.459317,0.232127 -0.123473,0.22719 -0.123473,0.656881 v 1.269286 h -0.735886 v -2.696633 h 0.563034 l 0.09878,0.345731 h 0.03951 q 0.128413,-0.207436 0.350653,-0.301281 0.227189,-0.09384 0.479081,-0.09384 z m 2.824956,0 q 0.558086,0 0.884053,0.321019 0.325966,0.316098 0.325966,0.903816 v 0.3556 h -1.738497 q 0.0099,0.31115 0.182737,0.48895 0.177802,0.1778 0.48895,0.1778 0.26176,0 0.474133,-0.04939 0.212373,-0.05433 0.439552,-0.162984 v 0.567981 q -0.197556,0.09878 -0.419814,0.143227 -0.217313,0.04939 -0.528452,0.04939 -0.404998,0 -0.716148,-0.148167 -0.31115,-0.153106 -0.48895,-0.459316 -0.177803,-0.306203 -0.177803,-0.770467 0,-0.474133 0.158047,-0.785283 0.162983,-0.316098 0.449447,-0.474134 0.286465,-0.158043 0.66675,-0.158043 z m 0.0049,0.523531 q -0.212373,0 -0.3556,0.13829 -0.13829,0.138289 -0.162983,0.429683 h 1.032219 q -0.0049,-0.246944 -0.128413,-0.404998 -0.123473,-0.162983 -0.385234,-0.162983 z m 2.938727,1.684152 q 0.123473,0 0.237069,-0.02469 0.113594,-0.02469 0.227188,-0.05927 v 0.548217 q -0.118534,0.04939 -0.296334,0.08396 -0.17286,0.03951 -0.380285,0.03951 -0.242007,0 -0.434631,-0.07902 -0.18768,-0.07902 -0.301281,-0.271648 -0.108657,-0.197557 -0.108657,-0.543269 V 51.03241 h -0.350652 v -0.31115 l 0.404998,-0.246944 0.212373,-0.567981 h 0.469185 v 0.572903 h 0.75565 v 0.553164 h -0.75565 v 1.298919 q 0,0.153106 0.0889,0.232127 0.0889,0.07408 0.232127,0.07408 z m 0.903817,-1.20015 q 0,-0.22719 0.123473,-0.316097 0.123473,-0.09384 0.301281,-0.09384 0.17286,0 0.296333,0.09384 0.123473,0.0889 0.123473,0.316097 0,0.21731 -0.123473,0.316098 -0.123473,0.09384 -0.296333,0.09384 -0.1778,0 -0.301281,-0.09384 -0.123473,-0.09878 -0.123473,-0.316098 z m 2.667,-1.787895 q 0.706252,0 1.0668,0.197556 0.360547,0.197557 0.360547,0.696384 0,0.301281 -0.143229,0.508714 -0.13829,0.207436 -0.40005,0.251886 v 0.02469 q 0.1778,0.03457 0.321019,0.123473 0.143229,0.0889 0.22719,0.25682 0.08396,0.167923 0.08396,0.4445 0,0.479081 -0.345731,0.750702 -0.345731,0.271648 -0.948266,0.271648 H 71.56883 V 49.64954 Z m 0.08396,1.397714 q 0.325967,0 0.449448,-0.103716 0.128413,-0.103717 0.128413,-0.301282 0,-0.202496 -0.148167,-0.291385 -0.148169,-0.0889 -0.469186,-0.0889 H 72.314638 V 51.0472 Z m -0.434631,0.592667 V 52.5585 h 0.48895 q 0.335836,0 0.469186,-0.128413 0.13335,-0.13335 0.13335,-0.350652 0,-0.197556 -0.138288,-0.316098 -0.13335,-0.123473 -0.48895,-0.123473 z m 4.988189,-1.160648 V 53.1759 h -0.563033 l -0.09878,-0.345731 h -0.03951 q -0.12841,0.207434 -0.3556,0.301281 -0.22225,0.09384 -0.474133,0.09384 -0.434631,0 -0.696383,-0.232127 -0.261761,-0.237066 -0.261761,-0.75565 V 50.47923 h 0.735886 v 1.575514 q 0,0.286464 0.103717,0.434631 0.103719,0.148167 0.330914,0.148167 0.335836,0 0.459317,-0.227187 0.12347,-0.23213 0.12347,-0.661803 v -1.269285 z m 1.140884,-1.056931 q 0.162983,0 0.281516,0.07902 0.118534,0.07408 0.118534,0.281517 0,0.202496 -0.118534,0.281517 -0.118536,0.07902 -0.281516,0.07902 -0.167921,0 -0.286465,-0.07902 -0.113593,-0.07902 -0.113593,-0.281517 0,-0.207433 0.113593,-0.281517 0.118536,-0.07902 0.286465,-0.07902 z m 0.365469,1.056931 V 53.1759 h -0.735886 v -2.696633 z m 1.506352,2.696633 h -0.735886 v -3.753643 h 0.735886 z m 1.624912,0.04939 q -0.449448,0 -0.735886,-0.350652 -0.281516,-0.3556 -0.281516,-1.042114 0,-0.691436 0.286464,-1.047036 0.286465,-0.3556 0.750702,-0.3556 0.291386,0 0.479081,0.113594 0.18768,0.113596 0.296334,0.281516 h 0.02469 q -0.01482,-0.07902 -0.03457,-0.22719 -0.01976,-0.153106 -0.01976,-0.31115 v -0.864314 h 0.735886 v 3.753644 H 82.87875 l -0.143229,-0.350653 h -0.02963 q -0.108653,0.167924 -0.291385,0.286465 -0.18274,0.113593 -0.474134,0.113593 z m 0.256821,-0.587719 q 0.306202,0 0.429683,-0.1778 0.12347,-0.182737 0.12841,-0.543269 v -0.07902 q 0,-0.395102 -0.123473,-0.602535 -0.118533,-0.207434 -0.4445,-0.207434 -0.242006,0 -0.380286,0.212373 -0.138287,0.207434 -0.138287,0.602536 0,0.395102 0.138287,0.597614 0.13829,0.197554 0.390181,0.197554 z m 3.126316,-2.207683 q 0.558086,0 0.884052,0.321019 0.325967,0.316098 0.325967,0.903817 v 0.3556 h -1.738498 q 0.0099,0.31115 0.18274,0.48895 0.1778,0.1778 0.48895,0.1778 0.26176,0 0.474133,-0.04939 0.212374,-0.05433 0.439553,-0.162984 v 0.567981 q -0.197557,0.09878 -0.419815,0.143227 -0.217312,0.04939 -0.528452,0.04939 -0.404998,0 -0.716148,-0.148167 -0.31115,-0.153106 -0.48895,-0.459316 -0.1778,-0.306202 -0.1778,-0.770467 0,-0.474133 0.158047,-0.785283 0.162983,-0.316098 0.449447,-0.474133 0.286465,-0.158044 0.66675,-0.158044 z m 0.0049,0.523531 q -0.212373,0 -0.3556,0.13829 -0.13829,0.13829 -0.162986,0.429683 h 1.032219 q -0.0049,-0.246943 -0.12841,-0.404998 -0.123474,-0.162983 -0.385234,-0.162983 z m 3.309144,-0.523531 q 0.05433,0 0.12841,0.0049 0.07408,0.0049 0.118536,0.01482 l -0.05433,0.691436 q -0.03457,-0.0099 -0.103716,-0.01482 -0.06421,-0.0099 -0.113594,-0.0099 -0.18768,0 -0.360548,0.06914 -0.172863,0.06421 -0.281516,0.212373 -0.10372,0.148167 -0.10372,0.404998 v 1.373002 h -0.735885 v -2.696633 h 0.558085 l 0.108657,0.454369 h 0.03457 q 0.118533,-0.207434 0.325967,-0.3556 0.207433,-0.148167 0.479081,-0.148167 z"
       fill="#00c4c4"
       style="white-space:pre;inline-size:154.426;stroke-width:0.264583"
       aria-label="Intranet·Builder"
       id="path13" />
  </g>
</svg>
